<svg width="24" height="24" viewBox="0 0 24 24" fill="none" xmlns="http://www.w3.org/2000/svg">
<path d="M4 2C3.44772 2 3 2.44772 3 3C3 3.55228 3.44772 4 4 4H18C18.5523 4 19 3.55228 19 3C19 2.44772 18.5523 2 18 2H4Z" fill="white"/>
<path d="M3 9C3 8.44772 3.44772 8 4 8H16C16.5523 8 17 8.44772 17 9C17 9.55228 16.5523 10 16 10H4C3.44772 10 3 9.55228 3 9Z" fill="white"/>
<path d="M4 14C3.44772 14 3 14.4477 3 15C3 15.5523 3.44772 16 4 16H20C20.5523 16 21 15.5523 21 15C21 14.4477 20.5523 14 20 14H4Z" fill="white"/>
<path d="M4 20C3.44772 20 3 20.4477 3 21C3 21.5523 3.44772 22 4 22H12C12.5523 22 13 21.5523 13 21C13 20.4477 12.5523 20 12 20H4Z" fill="white"/>
</svg>
