<svg width="36" height="36" viewBox="0 0 36 36" fill="none" xmlns="http://www.w3.org/2000/svg">
<path d="M31.5 12.375V9C31.5 8.10489 31.1444 7.24645 30.5115 6.61351C29.8786 5.98058 29.0201 5.625 28.125 5.625V4.5C28.125 3.60489 27.7694 2.74645 27.1365 2.11351C26.5036 1.48058 25.6451 1.125 24.75 1.125H11.25C10.3549 1.125 9.49645 1.48058 8.86351 2.11351C8.23058 2.74645 7.875 3.60489 7.875 4.5V5.625C6.97989 5.625 6.12145 5.98058 5.48851 6.61351C4.85558 7.24645 4.5 8.10489 4.5 9V12.375C3.60489 12.375 2.74645 12.7306 2.11351 13.3635C1.48058 13.9964 1.125 14.8549 1.125 15.75V31.5C1.125 32.3951 1.48058 33.2536 2.11351 33.8865C2.74645 34.5194 3.60489 34.875 4.5 34.875H31.5C32.3951 34.875 33.2536 34.5194 33.8865 33.8865C34.5194 33.2536 34.875 32.3951 34.875 31.5V15.75C34.875 14.8549 34.5194 13.9964 33.8865 13.3635C33.2536 12.7306 32.3951 12.375 31.5 12.375ZM10.125 4.5C10.125 4.20163 10.2435 3.91548 10.4545 3.7045C10.6655 3.49353 10.9516 3.375 11.25 3.375H24.75C25.0484 3.375 25.3345 3.49353 25.5455 3.7045C25.7565 3.91548 25.875 4.20163 25.875 4.5V5.625H10.125V4.5ZM6.75 9C6.75 8.70163 6.86853 8.41548 7.07951 8.20451C7.29048 7.99353 7.57663 7.875 7.875 7.875H28.125C28.4234 7.875 28.7095 7.99353 28.9205 8.20451C29.1315 8.41548 29.25 8.70163 29.25 9V12.375H6.75V9ZM32.625 31.5C32.625 31.7984 32.5065 32.0845 32.2955 32.2955C32.0845 32.5065 31.7984 32.625 31.5 32.625H4.5C4.20163 32.625 3.91548 32.5065 3.7045 32.2955C3.49353 32.0845 3.375 31.7984 3.375 31.5V15.75C3.375 15.4516 3.49353 15.1655 3.7045 14.9545C3.91548 14.7435 4.20163 14.625 4.5 14.625H31.5C31.7984 14.625 32.0845 14.7435 32.2955 14.9545C32.5065 15.1655 32.625 15.4516 32.625 15.75V31.5Z" fill="white"/>
<path d="M23.625 21.6L17.1563 17.55C16.7934 17.3257 16.3773 17.2023 15.9508 17.1926C15.5244 17.1829 15.103 17.2872 14.7304 17.4948C14.3577 17.7023 14.0472 18.0056 13.8309 18.3733C13.6146 18.7409 13.5004 19.1597 13.5 19.5862V27.6637C13.4986 28.0903 13.6116 28.5095 13.8273 28.8775C14.043 29.2455 14.3534 29.549 14.7263 29.7562C15.0995 29.9644 15.5217 30.069 15.9489 30.0591C16.3762 30.0492 16.793 29.9252 17.1563 29.7L23.625 25.65C23.9691 25.4359 24.253 25.1376 24.4499 24.7833C24.6467 24.4289 24.75 24.0303 24.75 23.625C24.75 23.2197 24.6467 22.821 24.4499 22.4667C24.253 22.1124 23.9691 21.8141 23.625 21.6ZM22.4325 23.7487L15.9638 27.7875C15.9419 27.7989 15.9175 27.8046 15.8929 27.804C15.8683 27.8035 15.8442 27.7967 15.8229 27.7844C15.8015 27.772 15.7837 27.7545 15.771 27.7334C15.7582 27.7123 15.751 27.6884 15.75 27.6637V19.5862C15.7473 19.5612 15.7524 19.5359 15.7644 19.5138C15.7765 19.4917 15.795 19.4738 15.8175 19.4625C15.8431 19.4539 15.8707 19.4539 15.8963 19.4625H15.9638L22.4325 23.5012C22.4534 23.5144 22.4707 23.5327 22.4826 23.5543C22.4946 23.576 22.5008 23.6003 22.5008 23.625C22.5008 23.6497 22.4946 23.674 22.4826 23.6957C22.4707 23.7173 22.4534 23.7356 22.4325 23.7487Z" fill="white"/>
</svg>
