<svg width="31" height="30" viewBox="0 0 31 30" fill="none" xmlns="http://www.w3.org/2000/svg">
<path d="M27.075 7.22661L18.435 1.18161C16.08 -0.468389 12.465 -0.378389 10.2 1.37661L2.685 7.24161C1.185 8.41161 0 10.8116 0 12.7016V23.0516C0 26.8766 3.105 29.9966 6.93 29.9966H23.1C26.925 29.9966 30.03 26.8916 30.03 23.0666V12.8966C30.03 10.8716 28.725 8.38161 27.075 7.22661ZM16.14 23.9966C16.14 24.6116 15.63 25.1216 15.015 25.1216C14.4 25.1216 13.89 24.6116 13.89 23.9966V19.4966C13.89 18.8816 14.4 18.3716 15.015 18.3716C15.63 18.3716 16.14 18.8816 16.14 19.4966V23.9966Z" fill="white"/>
</svg>
