<svg width="66" height="66" viewBox="0 0 66 66" fill="none" xmlns="http://www.w3.org/2000/svg">
<rect x="0.5" y="0.5" width="65" height="65" rx="32.5" fill="white" fill-opacity="0.05"/>
<rect x="0.5" y="0.5" width="65" height="65" rx="32.5" stroke="url(#paint0_linear_3875_20763)"/>
<path d="M33 30.3334C33.7364 30.3334 34.3333 30.9303 34.3333 31.6667V39.6667C34.3333 40.4031 33.7364 41 33 41C32.2636 41 31.6667 40.4031 31.6667 39.6667V31.6667C31.6667 30.9303 32.2636 30.3334 33 30.3334Z" fill="white"/>
<path d="M33 27.6667C33.7364 27.6667 34.3333 27.0697 34.3333 26.3334C34.3333 25.597 33.7364 25 33 25C32.2636 25 31.6667 25.597 31.6667 26.3334C31.6667 27.0697 32.2636 27.6667 33 27.6667Z" fill="white"/>
<path fill-rule="evenodd" clip-rule="evenodd" d="M33 46.3334C40.3638 46.3334 46.3333 40.3638 46.3333 33C46.3333 25.6362 40.3638 19.6667 33 19.6667C25.6362 19.6667 19.6667 25.6362 19.6667 33C19.6667 40.3638 25.6362 46.3334 33 46.3334ZM33 43.6667C38.891 43.6667 43.6667 38.8911 43.6667 33C43.6667 27.109 38.891 22.3334 33 22.3334C27.109 22.3334 22.3333 27.109 22.3333 33C22.3333 38.8911 27.109 43.6667 33 43.6667Z" fill="white"/>
<defs>
<linearGradient id="paint0_linear_3875_20763" x1="33" y1="0" x2="33" y2="66" gradientUnits="userSpaceOnUse">
<stop stop-color="white"/>
<stop offset="1" stop-color="white" stop-opacity="0.31"/>
</linearGradient>
</defs>
</svg>
