<svg width="36" height="36" viewBox="0 0 36 36" fill="none" xmlns="http://www.w3.org/2000/svg">
<g clip-path="url(#clip0_4180_22248)">
<path d="M14.3166 29.2714H32.25V32.2929H14.3166V29.2714ZM5.56768 30.8571L2.26281 34.1743L4.06896 36L9.19278 30.8571L4.06896 25.7143L2.25 27.5271L5.56768 30.8571ZM14.3166 16.4143H32.25V19.4357H14.3166V16.4143ZM5.56768 18L2.26281 21.3171L4.06896 23.1429L9.19278 18L4.06896 12.8571L2.25 14.67L5.56768 18ZM14.3166 3.55714H32.25V6.57857H14.3166V3.55714ZM5.56768 5.14286L2.26281 8.46L4.06896 10.2857L9.19278 5.14286L4.06896 0L2.25 1.81286L5.56768 5.14286Z" fill="white"/>
</g>
<defs>
<clipPath id="clip0_4180_22248">
<rect width="36" height="36" fill="white"/>
</clipPath>
</defs>
</svg>
