<svg width="36" height="36" viewBox="0 0 36 36" fill="none" xmlns="http://www.w3.org/2000/svg">
<path d="M7.76926 4.97978C7.61904 4.82975 7.4401 4.71016 7.24266 4.62785C7.04521 4.54554 6.83314 4.50212 6.61854 4.50008C6.40395 4.49803 6.19105 4.5374 5.99201 4.61593C5.79296 4.69446 5.61168 4.81062 5.45851 4.95776C3.7264 6.64436 2.35234 8.64982 1.41552 10.8586C0.478693 13.0673 -0.0023832 15.4358 9.30012e-06 17.8273C-0.0025331 20.3107 0.51622 22.7681 1.52409 25.0471C2.53196 27.3261 4.00744 29.3781 5.85901 31.0757C6.17068 31.3578 6.58237 31.5098 7.00667 31.4995C7.43097 31.4892 7.83447 31.3175 8.13151 31.0207C8.84251 30.3247 8.75476 29.2168 8.07076 28.5758C6.58463 27.1894 5.40201 25.5216 4.59477 23.6739C3.78753 21.8261 3.37254 19.837 3.37501 17.8273C3.37501 13.7614 5.04226 10.0743 7.74676 7.39159C8.39926 6.74183 8.46676 5.66258 7.76926 4.97978ZM11.7315 8.8629C11.4352 8.56443 11.0301 8.39312 10.6049 8.38651C10.1798 8.3799 9.76936 8.53854 9.46351 8.82766C8.24584 10.0035 7.27935 11.4048 6.62035 12.9499C5.96135 14.495 5.62299 16.153 5.62501 17.8273C5.62501 21.5541 7.26751 24.9042 9.88426 27.2213C10.1933 27.4881 10.5955 27.6282 11.0072 27.6126C11.419 27.597 11.8089 27.4269 12.096 27.1376C12.834 26.4151 12.6968 25.2786 12.0038 24.6399C11.0541 23.7655 10.2977 22.7099 9.78105 21.5382C9.26443 20.3665 8.99861 19.1035 9.00001 17.8273C9.00001 15.2944 10.0283 12.9949 11.7 11.3077C12.3435 10.6602 12.4493 9.56332 11.7315 8.8629ZM24.2685 8.8607C24.5648 8.56222 24.9699 8.39091 25.3951 8.38431C25.8202 8.3777 26.2306 8.53634 26.5365 8.82546C27.7544 10.0016 28.7211 11.4032 29.3801 12.9487C30.0391 14.4942 30.3773 16.1526 30.375 17.8273C30.375 21.5541 28.7325 24.9042 26.1157 27.2213C25.8067 27.4881 25.4045 27.6282 24.9928 27.6126C24.581 27.597 24.1911 27.4269 23.904 27.1376C23.166 26.4151 23.3032 25.2786 23.9962 24.6399C24.9459 23.7655 25.7023 22.7099 26.219 21.5382C26.7356 20.3665 27.0014 19.1035 27 17.8273C27 15.2944 25.9717 12.9949 24.3 11.3077C23.6565 10.6602 23.5507 9.56111 24.2685 8.8607ZM28.2307 4.97978C28.381 4.82975 28.5599 4.71016 28.7573 4.62785C28.9548 4.54554 29.1669 4.50212 29.3815 4.50008C29.5961 4.49803 29.809 4.5374 30.008 4.61593C30.207 4.69446 30.3883 4.81062 30.5415 4.95776C32.2736 6.64436 33.6477 8.64982 34.5845 10.8586C35.5213 13.0673 36.0024 15.4358 36 17.8273C36.0025 20.3107 35.4838 22.7681 34.4759 25.0471C33.468 27.3261 31.9926 29.3781 30.141 31.0757C29.8293 31.3578 29.4176 31.5098 28.9933 31.4995C28.569 31.4892 28.1655 31.3175 27.8685 31.0207C27.1575 30.3247 27.2452 29.2168 27.9315 28.5758C29.4172 27.1892 30.5994 25.5213 31.4063 23.6736C32.2131 21.8259 32.6278 19.8368 32.625 17.8273C32.625 13.7614 30.9577 10.0743 28.2532 7.39159C27.6007 6.74183 27.5332 5.66258 28.2307 4.97978ZM18 14.5235C17.1049 14.5235 16.2465 14.8716 15.6135 15.4912C14.9806 16.1108 14.625 16.9511 14.625 17.8273C14.625 18.7036 14.9806 19.5439 15.6135 20.1635C16.2465 20.7831 17.1049 21.1312 18 21.1312C18.8951 21.1312 19.7536 20.7831 20.3865 20.1635C21.0194 19.5439 21.375 18.7036 21.375 17.8273C21.375 16.9511 21.0194 16.1108 20.3865 15.4912C19.7536 14.8716 18.8951 14.5235 18 14.5235Z" fill="#F5F5F5"/>
</svg>
